<mxfile host="app.diagrams.net" modified="2021-08-09T13:40:40.801Z" agent="5.0 (Windows NT 10.0; Win64; x64) AppleWebKit/537.36 (KHTML, like Gecko) Chrome/92.0.4515.131 Safari/537.36 Edg/92.0.902.67" etag="LhoxIUAjtyDrLAH-WeXb" version="14.9.5" type="github" pages="4">
  <diagram id="SWkktEIaiRyiAMf7fVFw" name="SVE Testing Workflow">
    <mxGraphModel dx="1422" dy="804" grid="1" gridSize="10" guides="1" tooltips="1" connect="1" arrows="1" fold="1" page="1" pageScale="1" pageWidth="850" pageHeight="1100" math="0" shadow="0">
      <root>
        <mxCell id="0" />
        <mxCell id="1" parent="0" />
        <mxCell id="2Vkk4Ym6hCeRYGhTmEv0-1" value="" style="edgeStyle=orthogonalEdgeStyle;rounded=0;orthogonalLoop=1;jettySize=auto;html=1;" edge="1" parent="1" source="2Vkk4Ym6hCeRYGhTmEv0-2" target="2Vkk4Ym6hCeRYGhTmEv0-4">
          <mxGeometry relative="1" as="geometry" />
        </mxCell>
        <mxCell id="2Vkk4Ym6hCeRYGhTmEv0-2" value="Identify Testing that needs to be done&amp;nbsp;" style="rounded=0;whiteSpace=wrap;html=1;" vertex="1" parent="1">
          <mxGeometry x="20" y="40" width="290" height="60" as="geometry" />
        </mxCell>
        <mxCell id="2Vkk4Ym6hCeRYGhTmEv0-3" value="" style="edgeStyle=orthogonalEdgeStyle;rounded=0;orthogonalLoop=1;jettySize=auto;html=1;" edge="1" parent="1" source="2Vkk4Ym6hCeRYGhTmEv0-4" target="2Vkk4Ym6hCeRYGhTmEv0-6">
          <mxGeometry relative="1" as="geometry" />
        </mxCell>
        <mxCell id="2Vkk4Ym6hCeRYGhTmEv0-4" value="Add Test Cases into a Test Plan Marked for SVE" style="rounded=0;whiteSpace=wrap;html=1;" vertex="1" parent="1">
          <mxGeometry x="480" y="40" width="290" height="60" as="geometry" />
        </mxCell>
        <mxCell id="2Vkk4Ym6hCeRYGhTmEv0-5" value="" style="edgeStyle=orthogonalEdgeStyle;rounded=0;orthogonalLoop=1;jettySize=auto;html=1;" edge="1" parent="1" source="2Vkk4Ym6hCeRYGhTmEv0-6" target="2Vkk4Ym6hCeRYGhTmEv0-8">
          <mxGeometry relative="1" as="geometry" />
        </mxCell>
        <UserObject label="Email SVE team with requested work to be tested" link="data:page/id,zqOseB57yFnmy3Es3eKO" id="2Vkk4Ym6hCeRYGhTmEv0-6">
          <mxCell style="rounded=0;whiteSpace=wrap;html=1;" vertex="1" parent="1">
            <mxGeometry x="480" y="160" width="290" height="60" as="geometry" />
          </mxCell>
        </UserObject>
        <mxCell id="2Vkk4Ym6hCeRYGhTmEv0-7" value="" style="edgeStyle=orthogonalEdgeStyle;rounded=0;orthogonalLoop=1;jettySize=auto;html=1;" edge="1" parent="1" source="2Vkk4Ym6hCeRYGhTmEv0-8" target="2Vkk4Ym6hCeRYGhTmEv0-9">
          <mxGeometry relative="1" as="geometry" />
        </mxCell>
        <UserObject label="SVE reviews and plans testing -" link="data:page/id,Ggx3lit6_xG0s4pqf4M7" id="2Vkk4Ym6hCeRYGhTmEv0-8">
          <mxCell style="rounded=0;whiteSpace=wrap;html=1;" vertex="1" parent="1">
            <mxGeometry x="20" y="160" width="290" height="60" as="geometry" />
          </mxCell>
        </UserObject>
        <UserObject label="Testing Completed Report back" link="data:page/id,VFVm0X9xBOwh26qBObbY" id="2Vkk4Ym6hCeRYGhTmEv0-9">
          <mxCell style="rounded=0;whiteSpace=wrap;html=1;" vertex="1" parent="1">
            <mxGeometry x="20" y="310" width="290" height="60" as="geometry" />
          </mxCell>
        </UserObject>
        <mxCell id="2Vkk4Ym6hCeRYGhTmEv0-10" value="" style="endArrow=classic;html=1;" edge="1" parent="1">
          <mxGeometry relative="1" as="geometry">
            <mxPoint x="624.5" y="90" as="sourcePoint" />
            <mxPoint x="625" y="160" as="targetPoint" />
            <Array as="points">
              <mxPoint x="624.5" y="140" />
            </Array>
          </mxGeometry>
        </mxCell>
        <mxCell id="2Vkk4Ym6hCeRYGhTmEv0-11" value="" style="shape=message;html=1;outlineConnect=0;" vertex="1" parent="2Vkk4Ym6hCeRYGhTmEv0-10">
          <mxGeometry width="20" height="14" relative="1" as="geometry">
            <mxPoint x="-10" y="-7" as="offset" />
          </mxGeometry>
        </mxCell>
      </root>
    </mxGraphModel>
  </diagram>
  <diagram name="SVE Email Layout" id="zqOseB57yFnmy3Es3eKO">
    <mxGraphModel dx="1422" dy="804" grid="1" gridSize="10" guides="1" tooltips="1" connect="1" arrows="1" fold="1" page="1" pageScale="1" pageWidth="850" pageHeight="1100" math="0" shadow="0">
      <root>
        <mxCell id="Kn41UU_Te-zk85BOZaLY-0" />
        <mxCell id="Kn41UU_Te-zk85BOZaLY-1" parent="Kn41UU_Te-zk85BOZaLY-0" />
        <mxCell id="2HtZk72NCAokQS2jglMT-0" value="TO: SVE Reps with experience in the application to be tested&lt;br&gt;CC: SVE Leaders, QA Leaders, QA team members on the product requesting assistance" style="rounded=1;whiteSpace=wrap;html=1;" parent="Kn41UU_Te-zk85BOZaLY-1" vertex="1">
          <mxGeometry x="40" y="40" width="570" height="60" as="geometry" />
        </mxCell>
        <mxCell id="2HtZk72NCAokQS2jglMT-1" value="Link to Test Plan with testing Items listed and estimated time to complete&lt;br&gt;Include - User Story/Bug Link so they are able to read what they are testing if applicable&lt;br&gt;Include any account information needed to login, URL&#39;s and Configuration Items&lt;br&gt;Note: If desktop application where to get current build being tested&lt;br&gt;" style="rounded=1;whiteSpace=wrap;html=1;" parent="Kn41UU_Te-zk85BOZaLY-1" vertex="1">
          <mxGeometry x="121" y="200" width="640" height="340" as="geometry" />
        </mxCell>
      </root>
    </mxGraphModel>
  </diagram>
  <diagram name="SVE Testing Flow" id="Ggx3lit6_xG0s4pqf4M7">
    <mxGraphModel dx="2062" dy="1164" grid="1" gridSize="10" guides="1" tooltips="1" connect="1" arrows="1" fold="1" page="1" pageScale="1" pageWidth="850" pageHeight="1100" math="0" shadow="0">
      <root>
        <mxCell id="46-6jYO3rm-5kN5_iv9x-0" />
        <mxCell id="46-6jYO3rm-5kN5_iv9x-1" parent="46-6jYO3rm-5kN5_iv9x-0" />
        <mxCell id="HI5MGv1fpYDjAgXWzPRH-2" value="" style="edgeStyle=orthogonalEdgeStyle;rounded=0;orthogonalLoop=1;jettySize=auto;html=1;" edge="1" parent="46-6jYO3rm-5kN5_iv9x-1" source="HI5MGv1fpYDjAgXWzPRH-0" target="HI5MGv1fpYDjAgXWzPRH-1">
          <mxGeometry relative="1" as="geometry" />
        </mxCell>
        <mxCell id="HI5MGv1fpYDjAgXWzPRH-0" value="SVE Rep Review request for testing assistance" style="rounded=1;whiteSpace=wrap;html=1;" vertex="1" parent="46-6jYO3rm-5kN5_iv9x-1">
          <mxGeometry x="40" y="40" width="280" height="60" as="geometry" />
        </mxCell>
        <mxCell id="HI5MGv1fpYDjAgXWzPRH-4" value="" style="edgeStyle=orthogonalEdgeStyle;rounded=0;orthogonalLoop=1;jettySize=auto;html=1;" edge="1" parent="46-6jYO3rm-5kN5_iv9x-1" source="HI5MGv1fpYDjAgXWzPRH-1" target="HI5MGv1fpYDjAgXWzPRH-3">
          <mxGeometry relative="1" as="geometry" />
        </mxCell>
        <mxCell id="HI5MGv1fpYDjAgXWzPRH-1" value="Reply back that you have time and will pick up the work." style="rounded=1;whiteSpace=wrap;html=1;" vertex="1" parent="46-6jYO3rm-5kN5_iv9x-1">
          <mxGeometry x="480" y="40" width="250" height="60" as="geometry" />
        </mxCell>
        <mxCell id="HI5MGv1fpYDjAgXWzPRH-6" value="" style="edgeStyle=orthogonalEdgeStyle;rounded=0;orthogonalLoop=1;jettySize=auto;html=1;" edge="1" parent="46-6jYO3rm-5kN5_iv9x-1" source="HI5MGv1fpYDjAgXWzPRH-3" target="HI5MGv1fpYDjAgXWzPRH-5">
          <mxGeometry relative="1" as="geometry" />
        </mxCell>
        <mxCell id="hGWi4zp1e6zVsq3JFgDf-5" value="" style="edgeStyle=orthogonalEdgeStyle;rounded=0;orthogonalLoop=1;jettySize=auto;html=1;" edge="1" parent="46-6jYO3rm-5kN5_iv9x-1" source="HI5MGv1fpYDjAgXWzPRH-3" target="hGWi4zp1e6zVsq3JFgDf-4">
          <mxGeometry relative="1" as="geometry" />
        </mxCell>
        <mxCell id="HI5MGv1fpYDjAgXWzPRH-3" value="Open Test Plan and assign test cases to yourself&lt;br&gt;Review User Story/Bug for additional information on testing requested.&lt;br&gt;Configure, Login, Install where application and run test" style="whiteSpace=wrap;html=1;rounded=1;" vertex="1" parent="46-6jYO3rm-5kN5_iv9x-1">
          <mxGeometry x="370" y="180" width="470" height="60" as="geometry" />
        </mxCell>
        <mxCell id="HI5MGv1fpYDjAgXWzPRH-8" value="" style="edgeStyle=orthogonalEdgeStyle;rounded=0;orthogonalLoop=1;jettySize=auto;html=1;" edge="1" parent="46-6jYO3rm-5kN5_iv9x-1" source="HI5MGv1fpYDjAgXWzPRH-5" target="HI5MGv1fpYDjAgXWzPRH-7">
          <mxGeometry relative="1" as="geometry" />
        </mxCell>
        <mxCell id="HI5MGv1fpYDjAgXWzPRH-5" value="If you are stuck on one test case move to another, make note of where you are stuck for a session with the team." style="whiteSpace=wrap;html=1;rounded=1;" vertex="1" parent="46-6jYO3rm-5kN5_iv9x-1">
          <mxGeometry x="380" y="320" width="450" height="60" as="geometry" />
        </mxCell>
        <mxCell id="hGWi4zp1e6zVsq3JFgDf-1" value="" style="edgeStyle=orthogonalEdgeStyle;rounded=0;orthogonalLoop=1;jettySize=auto;html=1;" edge="1" parent="46-6jYO3rm-5kN5_iv9x-1" source="HI5MGv1fpYDjAgXWzPRH-7" target="hGWi4zp1e6zVsq3JFgDf-0">
          <mxGeometry relative="1" as="geometry" />
        </mxCell>
        <mxCell id="HI5MGv1fpYDjAgXWzPRH-7" value="Once testing is completed Send report email - If questions arise please include those and ask for a session to discuss with the team" style="whiteSpace=wrap;html=1;rounded=1;" vertex="1" parent="46-6jYO3rm-5kN5_iv9x-1">
          <mxGeometry x="380" y="460" width="450" height="60" as="geometry" />
        </mxCell>
        <mxCell id="hGWi4zp1e6zVsq3JFgDf-0" value="QA - Review Report and address any questions or blockers.&amp;nbsp; If blockers cleared report back in the status email." style="whiteSpace=wrap;html=1;rounded=1;" vertex="1" parent="46-6jYO3rm-5kN5_iv9x-1">
          <mxGeometry x="40" y="460" width="280" height="60" as="geometry" />
        </mxCell>
        <mxCell id="hGWi4zp1e6zVsq3JFgDf-4" value="During this time phone status should be set to correct option for time tracking" style="ellipse;whiteSpace=wrap;html=1;rounded=1;" vertex="1" parent="46-6jYO3rm-5kN5_iv9x-1">
          <mxGeometry x="40" y="210" width="230" height="60" as="geometry" />
        </mxCell>
      </root>
    </mxGraphModel>
  </diagram>
  <diagram name="SVE Report Email" id="VFVm0X9xBOwh26qBObbY">
    <mxGraphModel dx="2062" dy="1164" grid="1" gridSize="10" guides="1" tooltips="1" connect="1" arrows="1" fold="1" page="1" pageScale="1" pageWidth="850" pageHeight="1100" math="0" shadow="0">
      <root>
        <mxCell id="T_ukjvrlT5LrfXAdGnF1-0" />
        <mxCell id="T_ukjvrlT5LrfXAdGnF1-1" parent="T_ukjvrlT5LrfXAdGnF1-0" />
        <mxCell id="VKSvrnGW5JOYc6efn2Wh-2" value="" style="edgeStyle=orthogonalEdgeStyle;rounded=0;orthogonalLoop=1;jettySize=auto;html=1;" edge="1" parent="T_ukjvrlT5LrfXAdGnF1-1" source="VKSvrnGW5JOYc6efn2Wh-0" target="VKSvrnGW5JOYc6efn2Wh-1">
          <mxGeometry relative="1" as="geometry" />
        </mxCell>
        <mxCell id="VKSvrnGW5JOYc6efn2Wh-0" value="Reply all to Assistance Email" style="rounded=1;whiteSpace=wrap;html=1;" vertex="1" parent="T_ukjvrlT5LrfXAdGnF1-1">
          <mxGeometry x="180" y="60" width="420" height="60" as="geometry" />
        </mxCell>
        <mxCell id="VKSvrnGW5JOYc6efn2Wh-1" value="Testing Status of covered area - Passed/Failure&amp;nbsp;&lt;br&gt;Time to complete&lt;br&gt;Blockers and Questions&lt;br&gt;" style="whiteSpace=wrap;html=1;rounded=1;" vertex="1" parent="T_ukjvrlT5LrfXAdGnF1-1">
          <mxGeometry x="50" y="200" width="680" height="270" as="geometry" />
        </mxCell>
      </root>
    </mxGraphModel>
  </diagram>
</mxfile>
